<svg xmlns="http://www.w3.org/2000/svg" viewBox="0 0 142 38.91"><defs><style>.cls-1{fill:#f1f2f2;}</style></defs><g id="Layer_2" data-name="Layer 2"><g id="BACKGROUND"><path class="cls-1" d="M142,38.91a4.19,4.19,0,0,0-3.94-2.77,4.29,4.29,0,0,0-1.56.3A4.19,4.19,0,0,0,132.69,34a3.88,3.88,0,0,0-1.14.17l-.24-.1a5.16,5.16,0,0,0,.07-.79,5,5,0,0,0-4.93-5,4.78,4.78,0,0,0-1.32.18,8.2,8.2,0,0,0-11.62-4A14.06,14.06,0,0,0,104,21.37a8.13,8.13,0,0,0,.56-3,8.22,8.22,0,0,0-8.19-8.25,8.06,8.06,0,0,0-3.63.87A15.09,15.09,0,0,0,64,10.19c-.28,0-.56,0-.85,0a8.17,8.17,0,0,0-6.95,3.9,8.22,8.22,0,0,0-4.85-1.57,8.36,8.36,0,0,0-8,6.18,18.48,18.48,0,0,0-8,4.68,8.32,8.32,0,0,0-13.37,5.4,4.85,4.85,0,0,0-2-.44,4.93,4.93,0,0,0-4.7,3.46,4.19,4.19,0,0,0-5.87,3.72L9,35.54a9,9,0,0,0-1.81-.18A9.14,9.14,0,0,0,0,38.91Z"/></g></g></svg>