<svg xmlns="http://www.w3.org/2000/svg" viewBox="0 0 100.83 30.17"><defs><style>.cls-1{fill:#f1f2f2;}</style></defs><g id="Layer_2" data-name="Layer 2"><g id="BACKGROUND"><path class="cls-1" d="M100.83,30.17A3,3,0,0,0,98,28a2.71,2.71,0,0,0-1.1.23,3,3,0,0,0-2.71-1.91,2.69,2.69,0,0,0-.81.13l-.17-.07a4.32,4.32,0,0,0,.05-.62,3.69,3.69,0,0,0-3.5-3.85,2.94,2.94,0,0,0-.94.15,5.87,5.87,0,0,0-5.39-4,5.49,5.49,0,0,0-2.87.83,9.38,9.38,0,0,0-6.72-2.39,6.94,6.94,0,0,0,.39-2.3c0-3.54-2.6-6.4-5.81-6.4a5.41,5.41,0,0,0-2.58.67C64.58,3.61,60.45,0,55.56,0A10.87,10.87,0,0,0,45.42,7.91a3.86,3.86,0,0,0-.6,0,5.7,5.7,0,0,0-4.93,3,5.55,5.55,0,0,0-3.45-1.23,6.06,6.06,0,0,0-5.71,4.8A13,13,0,0,0,25,18.1a5.54,5.54,0,0,0-3.63-1.37,6.14,6.14,0,0,0-5.86,5.55,3.27,3.27,0,0,0-1.43-.34,3.56,3.56,0,0,0-3.34,2.69,2.77,2.77,0,0,0-1.19-.27,3.14,3.14,0,0,0-3,3.16l-.16,0a6.14,6.14,0,0,0-1.29-.14A6.32,6.32,0,0,0,0,30.17Z"/></g></g></svg>