<svg xmlns="http://www.w3.org/2000/svg" viewBox="0 0 159.22 47.65"><defs><style>.cls-1{fill:#f1f2f2;}</style></defs><g id="Layer_2" data-name="Layer 2"><g id="BACKGROUND"><path class="cls-1" d="M159.22,47.65a4.75,4.75,0,0,0-4.42-3.39,4.24,4.24,0,0,0-1.74.37,4.71,4.71,0,0,0-4.28-3,4.23,4.23,0,0,0-1.28.2l-.27-.12a6.24,6.24,0,0,0,.08-1,5.82,5.82,0,0,0-5.52-6.08,4.89,4.89,0,0,0-1.49.23,9.26,9.26,0,0,0-8.51-6.24,8.49,8.49,0,0,0-4.52,1.3,14.89,14.89,0,0,0-10.62-3.77,10.91,10.91,0,0,0,.62-3.64c0-5.58-4.11-10.1-9.18-10.1A8.48,8.48,0,0,0,104,13.49C102,5.7,95.46,0,87.73,0c-7.4,0-13.69,5.22-16,12.48-.31,0-.63-.05-1-.05A9,9,0,0,0,63,17.21a8.77,8.77,0,0,0-5.45-1.93,9.56,9.56,0,0,0-9,7.57,20.46,20.46,0,0,0-9,5.74,8.8,8.8,0,0,0-5.74-2.18c-4.7,0-8.58,3.81-9.25,8.78a5,5,0,0,0-2.26-.54A5.6,5.6,0,0,0,17,38.9a4.29,4.29,0,0,0-1.88-.43,4.93,4.93,0,0,0-4.7,5l-.27.07a9.09,9.09,0,0,0-2-.22A10,10,0,0,0,0,47.65Z"/></g></g></svg>