<svg xmlns="http://www.w3.org/2000/svg" viewBox="0 0 96.5 34.82"><defs><style>.cls-1{fill:#f1f2f2;}</style></defs><g id="Layer_2" data-name="Layer 2"><g id="BACKGROUND"><path class="cls-1" d="M89.41,29.73a7.45,7.45,0,0,0-3.4.81,6.34,6.34,0,0,0-11.52-2.75A5.33,5.33,0,0,0,69.18,23a5.26,5.26,0,0,0-3,1c-2-2.92-5.3-4-8.89-3.43a10.15,10.15,0,0,0-9.4-9.06c0-.31.05-.63.05-.95A9.14,9.14,0,0,0,32.07,4.26a8.56,8.56,0,0,0-16,4.17A8.1,8.1,0,0,0,13.41,8,8.22,8.22,0,0,0,6.89,21.2a7.8,7.8,0,0,0-3.11,6.24,8,8,0,0,0,.28,2.09A5.48,5.48,0,0,0,0,34.82H96.5A7.49,7.49,0,0,0,89.41,29.73Z"/></g></g></svg>