<svg xmlns="http://www.w3.org/2000/svg" xmlns:xlink="http://www.w3.org/1999/xlink" viewBox="0 0 274.77 258.2"><defs><style>.cls-1,.cls-21{fill:#ef4136;}.cls-1{clip-rule:evenodd;}.cls-2{isolation:isolate;}.cls-3{fill:#27aae1;}.cls-10,.cls-11,.cls-12,.cls-13,.cls-14,.cls-15,.cls-16,.cls-17,.cls-18,.cls-19,.cls-20,.cls-21,.cls-23,.cls-24,.cls-3,.cls-4,.cls-5,.cls-6,.cls-7,.cls-8,.cls-9{fill-rule:evenodd;}.cls-4{fill:#f1f2f2;opacity:0.54;mix-blend-mode:multiply;}.cls-5{fill:#a15641;}.cls-6{fill:#fbb040;}.cls-7{fill:#872523;}.cls-8{fill:#e8b2a5;}.cls-9{fill:#594a42;}.cls-10{fill:#facab8;}.cls-11{fill:#f3b9ac;}.cls-12{fill:#363638;}.cls-13{fill:#fff;}.cls-14{fill:#edaea5;}.cls-15{fill:#574840;}.cls-16{fill:#e8baaf;}.cls-17{fill:#7e2225;}.cls-18{fill:#63534a;}.cls-19{fill:#f7941e;}.cls-20{fill:#872413;}.cls-22{clip-path:url(#clip-path);}.cls-23{fill:#965038;}.cls-24{fill:#9b5842;}</style><clipPath id="clip-path"><path class="cls-1" d="M110.69,1.59c-8.86,10.76,2,25.18,4.63,30.34-27.23,3-45.08,9.78-58.77,18.31C61.84,31.1,79.51,7.46,110.69,1.59Z"/></clipPath></defs><g class="cls-2"><g id="Layer_2" data-name="Layer 2"><g id="BACKGROUND"><path class="cls-3" d="M118.88,36.14c12.94,34.93,22.32,95.28,23,151.65,22.77-16,61.81-33.74,119.59-12.37C227.44,126.67,170.61,75.9,118.88,36.14Z"/><path class="cls-4" d="M118.88,36.14c61.43,56.75,67.31,104.43,61.94,133.2,21.16-5.58,47.89-6,80.65,6.08C227.44,126.67,170.61,75.9,118.88,36.14Z"/><path class="cls-5" d="M111.86,0h0a1.42,1.42,0,0,1,1.58,1.16L145.88,214a1.38,1.38,0,0,1-1.16,1.58h0a1.41,1.41,0,0,1-1.58-1.16L110.69,1.59A1.38,1.38,0,0,1,111.86,0Z"/><path class="cls-5" d="M3.21,225.8c47.38-3.81,241.24-35.23,267.45-44.57C263.1,262.21,22,283,3.21,225.8Z"/><path class="cls-6" d="M115.89,35c-2.19,40.91,13.17,128.38,23.77,156.53-39.26-4-84.95-4-128.88,28.68C30.6,157.87,74.53,93.63,115.89,35Z"/><path class="cls-4" d="M139.64,191.45c-10.55-28.09-25.81-114.83-23.77-155.93,0-.18,0-.36,0-.54l-.08.19c-20,48.73-55,109-39.39,157,22-3.69,43.43-2.68,63.22-.67Z"/><path class="cls-7" d="M58.64,194.34a12.45,12.45,0,0,1-4.85,2.82c-2.84,1-3.53,1.47-3.75,2-.11.25,8.81,28.19,9.58,30.27,6.09-.65,9.16-2,15.24-2.65-.46-7.9.32-26.36,0-31.63-1.06-.41-6.35-.37-8.41-1.16s-2.81-1.11-3.17-1.06S58.64,194.34,58.64,194.34Z"/><path class="cls-8" d="M57.71,187.82a7.11,7.11,0,0,1,1.09,4.08,6,6,0,0,1-1.25,3.45s1.45,1.25,5,1.13S67,195.15,67,195.15s-1.08-.11-3-2.52a13.16,13.16,0,0,1-2.37-5Z"/><path class="cls-9" d="M50.17,184c0,.1,0,1.14,2.2,3.76s4.54,2.34,4.49,2.2-1-6.28-1-6.28Z"/><path class="cls-10" d="M63.72,169.23a15.35,15.35,0,0,1,3,5c.18.89-.06,2.51.49,3.39,2.78,4.43,4.27,9.92-1.09,11.91-2.21.83-9,2.15-10.88.08a22.35,22.35,0,0,1-2.68-3.92,4.23,4.23,0,0,1-3.09-1c-1.16-1.15-2-3.51-1.21-4.29s1.43-.6,1.43-.6-2.35-4.9-1.77-6.8,2.22-3.59,7.28-5.38S63,168,63.72,169.23Z"/><path class="cls-11" d="M63.72,169.23a8.4,8.4,0,0,1,1.14,1.41,5.12,5.12,0,0,1-3.34,1.16c-9.1-.11-9-.19-10.61,2.23,0,0-2.12,2.11-2.07,2.78a11.57,11.57,0,0,1-.13-5.32c1-1.3,2.84-2.54,6.49-3.83C60.27,165.86,63,168,63.72,169.23Z"/><path class="cls-9" d="M53.57,178c-.18-1.16-2.56-2.74-2.65-4a2.81,2.81,0,0,1,2.23-2.87c2.18-.51,8.66,1.38,11.76-1.08a4.56,4.56,0,0,0-.11-7.46,7.09,7.09,0,0,1-4.64,2.56,1.41,1.41,0,0,0,.51-1.3c-.63,1-8.77,1.14-11.19,3.18A7.22,7.22,0,0,0,47,172s-1.16,2.52-1.54,3.77,2.5,5.18,2.5,5.18a1.85,1.85,0,0,1,1.3-1c2-.33,3.42,0,4.32,1.69.68,1.23,1,1.6,1.28,1.5C55.56,182.9,53.78,179.32,53.57,178Z"/><path class="cls-9" d="M55.78,177.32c-.88.52.06,1.22.18,1.18,2.17-.74,3.57-1.42,4.84-1.35.85,0,1.2-1.07-.11-1.19A12.41,12.41,0,0,0,55.78,177.32Z"/><path class="cls-9" d="M63.79,175c-.59.45-.18,1,.23.92a8.3,8.3,0,0,1,2.59-.57c.15,0,.24-.72-.32-.95A4,4,0,0,0,63.79,175Z"/><path class="cls-12" d="M59.8,180a.92.92,0,0,0-.26-1.81A.92.92,0,0,0,59.8,180Z"/><path class="cls-12" d="M66,178.67a.92.92,0,0,0-.27-1.81.87.87,0,0,0-.68,1A.88.88,0,0,0,66,178.67Z"/><path class="cls-13" d="M60.09,179.08a.32.32,0,0,0,.25-.38.32.32,0,0,0-.34-.29.32.32,0,0,0-.25.38A.32.32,0,0,0,60.09,179.08Z"/><path class="cls-13" d="M66.23,177.77a.31.31,0,0,0,.25-.37.32.32,0,0,0-.34-.29.33.33,0,0,0-.26.38A.32.32,0,0,0,66.23,177.77Z"/><path class="cls-14" d="M63,178.16c.55-.41.73,1.12,1.91,1.84s2.46.43,1.69,1.44C64.23,184.59,61.24,180,63,178.16Z"/><path class="cls-14" d="M49.13,181.45c-.78,1.37,1.34,3.66,3.24,3.09.65-.2.38-1.3.08-1.46s-.59,0-.58-.41.46-.53.39-.93-.71-.63-1-.81A1.38,1.38,0,0,0,49.13,181.45Z"/><path class="cls-15" d="M50.92,173.93a3.45,3.45,0,0,1,2.47-2.67c3.18-.53,9.34,1.75,12.26-2a4.49,4.49,0,0,0-.85-6.74s.32,3-1.45,4.16c-.43.28-.79.5-1.1.68a4,4,0,0,1-1.4.63,5.79,5.79,0,0,1,.64-.85c.19-.23.35-.43.37-.47a5.65,5.65,0,0,0-.62.41,6.6,6.6,0,0,1-3.42,1.18c-2.23,0-5,.45-6.58,2.21S51,174.57,50.92,173.93Z"/><path class="cls-16" d="M51.07,185.31c-2.16-.58-3.35-3.41-2.92-4.64a1.64,1.64,0,0,0-.16.26c-.26,1,.51,2.83,1.48,3.8a3.59,3.59,0,0,0,2.09.93,5.16,5.16,0,0,0,1,0,24.31,24.31,0,0,0,2,3.05q.34.45.72.87a5,5,0,0,0,3.53,1.1,21.24,21.24,0,0,0,3.88-.32,20.44,20.44,0,0,0,3.47-.86,4.48,4.48,0,0,0,3-3A4.6,4.6,0,0,1,66.33,189a21.23,21.23,0,0,1-3.92.93,18.3,18.3,0,0,1-3.74.23,5,5,0,0,1-3.09-1l-.13-.13a19.71,19.71,0,0,1-2.54-3.72A4.26,4.26,0,0,1,51.07,185.31Z"/><path class="cls-9" d="M64.37,182.76c-.49.41-1.59.32-2.46.45s-.71.65-.71.65a3.55,3.55,0,0,0-1.43.82.74.74,0,0,0,0,1l-.48,1.14a7.87,7.87,0,0,1-2.34-1.05,4.85,4.85,0,0,1-.92-1.67c-.24-.57-1.06-1.85-1-1.9s-.78-.36-.78.37c0,.36-.05,2.51-.08,2.65-.11.44-.93.9-.94,1.35s.55.37.55.37a6.39,6.39,0,0,0,0,2.28c.26.42,1,0,1,.06s.23,1.56.48,1.44l.59-.3s1.73,1,2.29.77,1-.72,1.21-.5,1.38.92,1.88.6.54-.52.67-.42,1.39.78,1.85.32a2.15,2.15,0,0,1,.83-.55s1.35.83,2,.31.75-1,.91-.93,1,.13,1.28-.3.41-.84.52-.85a1.13,1.13,0,0,0,1-.6,3.15,3.15,0,0,0,.16-1.41,5.51,5.51,0,0,0,.63-1.22c0-.33-.59-1.12-.6-1.39s-.75-.53-.71-.69-.79-1-1.08-1.27-1.09-.18-1.73-.11S64.37,182.76,64.37,182.76Z"/><path class="cls-17" d="M68.41,182.83c.33,1.3-.81,2.75-2.59,3.26s-3.51-.12-3.91-1.39a13.23,13.23,0,0,0,3.36-.53A13.06,13.06,0,0,0,68.41,182.83Z"/><path class="cls-13" d="M62.7,184.66a14.33,14.33,0,0,0,5.07-1.47c0,.13,0,0,.1.37s-.81,1.25-2.26,1.66-2.7.13-2.8-.2S62.73,184.79,62.7,184.66Z"/><path class="cls-7" d="M71.6,194.75a12.6,12.6,0,0,1,3.31.4c2.71.9,4.93,3.07,6.93,6.32a22.55,22.55,0,0,1,3.19,12A31.12,31.12,0,0,1,83.39,223l-4.56-1.48a26.25,26.25,0,0,0,1.39-8.09A17.78,17.78,0,0,0,77.76,204a9.66,9.66,0,0,0-4.86-4.29,4.33,4.33,0,0,0-1.28-.23Z"/><path class="cls-7" d="M54.9,196.76a24.67,24.67,0,0,0-4.34,1.82c-2.35,1.62-3.51,4.15-4.51,7.84a22.54,22.54,0,0,0,.36,12.42,30.88,30.88,0,0,0,4.28,8.71l4-2.72A26.39,26.39,0,0,1,51,217.47a17.9,17.9,0,0,1-.34-9.8,9.71,9.71,0,0,1,3.44-5.5,4.55,4.55,0,0,1,1.17-.58Z"/><path class="cls-18" d="M60.63,163.79h0c-.63,1.05-8.77,1.15-11.18,3.19A7.22,7.22,0,0,0,47,172s-1.16,2.52-1.54,3.76S48,181,48,181A1.87,1.87,0,0,1,49,180c-.84-.64-3.61-1.63-3.16-4a11.14,11.14,0,0,1,1.85-4.19,4.45,4.45,0,0,1,.86-2.44A7,7,0,0,1,53.85,166,19,19,0,0,0,60,164.43C60.61,164,60.63,163.81,60.63,163.79Z"/><path class="cls-19" d="M2.86,230.71c52.07-4.73,241.05-35.42,269.32-45,2.71-.65,3.75-5.92.87-5.46C246.35,189.77,48.82,221.78.54,225.67-.88,225.76.71,231,2.86,230.71Z"/><path class="cls-20" d="M110.69,1.59c-8.86,10.76,2,25.18,4.63,30.34-27.23,3-45.08,9.78-58.77,18.31C61.84,31.1,79.51,7.46,110.69,1.59Z"/><path class="cls-21" d="M110.69,1.59c-8.86,10.76,2,25.18,4.63,30.34-27.23,3-45.08,9.78-58.77,18.31C61.84,31.1,79.51,7.46,110.69,1.59Z"/><g class="cls-22"><path class="cls-21" d="M119.59,14.9c-12,11.57,2.37,26.81,5.81,32.27C89,50.66,65.12,58.14,46.74,67.39,54,46.93,77.9,21.54,119.59,14.9Z"/></g><path class="cls-23" d="M9.23,235.62c53.55-5.33,224.52-33.09,258.75-43.07a42,42,0,0,0,1.85-6.1c-17.2,5.07-69.61,14.72-124.53,23.77l-2.73.45C88.2,219.6,31.91,227.87,5.32,230.47A28.57,28.57,0,0,0,9.23,235.62Z"/><path class="cls-24" d="M268,192.55c-34.23,10-205.2,37.74-258.75,43.07a40.94,40.94,0,0,0,7.4,6.1c57.17-6.42,205.73-30.57,247.25-41.05A47.22,47.22,0,0,0,268,192.55Z"/><path class="cls-23" d="M263.88,200.67C222.36,211.15,73.8,235.3,16.63,241.72a64.49,64.49,0,0,0,8.92,4.81c59.66-7.33,187.57-28.17,233-38.69A58.75,58.75,0,0,0,263.88,200.67Z"/><path class="cls-24" d="M258.56,207.84c-45.44,10.52-173.35,31.36-233,38.69a102.15,102.15,0,0,0,15.14,5.28c58.41-7.76,159-24.18,207.87-34.4A77.45,77.45,0,0,0,258.56,207.84Z"/><path class="cls-23" d="M248.56,217.41c-48.85,10.22-149.46,26.64-207.87,34.4a163.57,163.57,0,0,0,17.09,3.57c53.44-7.49,130.74-20.11,178.48-29.42A110.17,110.17,0,0,0,248.56,217.41Z"/></g></g></g></svg>