<svg xmlns="http://www.w3.org/2000/svg" viewBox="0 0 125.23 37.47"><defs><style>.cls-1{fill:#f1f2f2;}</style></defs><g id="Layer_2" data-name="Layer 2"><g id="BACKGROUND"><path class="cls-1" d="M125.23,37.47a3.74,3.74,0,0,0-3.47-2.66,3.38,3.38,0,0,0-1.38.29A3.7,3.7,0,0,0,117,32.73a3.39,3.39,0,0,0-1,.16l-.21-.09a4.9,4.9,0,0,0,.07-.77,4.58,4.58,0,0,0-4.35-4.78,4.09,4.09,0,0,0-1.17.18,7.29,7.29,0,0,0-6.69-4.91,6.73,6.73,0,0,0-3.56,1,11.69,11.69,0,0,0-8.35-3,8.67,8.67,0,0,0,.49-2.86c0-4.39-3.23-7.94-7.22-7.94a6.64,6.64,0,0,0-3.21.83C80.21,4.48,75.08,0,69,0,63.18,0,58.24,4.1,56.42,9.82a6.28,6.28,0,0,0-.75,0,7.1,7.1,0,0,0-6.13,3.75A6.89,6.89,0,0,0,45.26,12,7.52,7.52,0,0,0,38.16,18a16.17,16.17,0,0,0-7.09,4.51,7,7,0,0,0-4.52-1.71,7.63,7.63,0,0,0-7.27,6.91,4,4,0,0,0-1.78-.43,4.43,4.43,0,0,0-4.15,3.34,3.48,3.48,0,0,0-1.47-.33,3.88,3.88,0,0,0-3.7,3.91L8,34.23a7.69,7.69,0,0,0-1.6-.18A7.86,7.86,0,0,0,0,37.47Z"/></g></g></svg>