<svg xmlns="http://www.w3.org/2000/svg" viewBox="0 0 125.01 31.32"><defs><style>.cls-1{fill:#f1f2f2;}</style></defs><g id="Layer_2" data-name="Layer 2"><g id="BACKGROUND"><path class="cls-1" d="M125,31.32c0-2.54-6.71-7.64-13.13-5A10.57,10.57,0,0,0,103.82,23h-.57a9.1,9.1,0,0,0-.42-1,10,10,0,0,0-14.32-4.2,7.65,7.65,0,0,0-6-2.84,7.93,7.93,0,0,0-1,.07l-.56.08a7.62,7.62,0,0,0-.61-2.22,7.79,7.79,0,0,0-8.55-4.53l-.46.1A10.33,10.33,0,0,0,70.57,6a10.68,10.68,0,0,0-18.5-1.28,10,10,0,0,0-13.56,8.43c-.23,0-.47,0-.71,0a11.68,11.68,0,0,0-11.46,9.44,10.17,10.17,0,0,0-2.55,1.21A12.16,12.16,0,0,0,19.5,23c-4.47,0-8.22,2.29-9.27,5.39C5.47,28.8,1.62,29.89,0,31.32Z"/></g></g></svg>